<?xml version="1.0" standalone="no"?>
<!DOCTYPE svg PUBLIC "-//W3C//DTD SVG 20010904//EN"
 "http://www.w3.org/TR/2001/REC-SVG-20010904/DTD/svg10.dtd">
<svg version="1.0" xmlns="http://www.w3.org/2000/svg"
 width="672.000000pt" height="672.000000pt" viewBox="0 0 672.000000 672.000000"
 preserveAspectRatio="xMidYMid meet">
<metadata>
Created by potrace 1.11, written by Peter Selinger 2001-2013
</metadata>
<g transform="translate(0.000000,672.000000) scale(0.100000,-0.100000)"
fill="#000000" stroke="none">
<path d="M2435 5915 c-5 -2 -44 -11 -85 -20 -153 -35 -279 -117 -352 -230 -55
-84 -70 -147 -74 -300 -3 -143 -3 -138 -28 -212 -22 -65 -86 -135 -152 -165
l-49 -23 -630 -2 c-659 -2 -741 -4 -790 -22 -124 -46 -213 -137 -254 -258 -21
-62 -21 -67 -21 -1555 0 -969 4 -1508 11 -1537 36 -159 179 -290 333 -307 17
-2 213 -4 436 -4 668 -1 603 -4 634 25 23 21 27 32 23 61 -9 62 -24 69 -150
71 -62 2 -112 3 -112 3 0 0 -189 2 -420 3 -381 2 -423 4 -456 20 -47 24 -92
68 -115 115 -18 35 -19 86 -21 1069 l-2 1032 639 0 640 0 -16 -37 c-16 -37
-63 -174 -69 -202 -2 -8 -12 -53 -23 -100 -12 -47 -23 -105 -26 -130 -3 -25
-8 -56 -12 -70 -9 -40 -13 -409 -4 -475 5 -33 11 -82 15 -110 12 -94 64 -296
95 -370 4 -11 18 -47 31 -80 141 -374 458 -755 818 -982 174 -111 495 -246
635 -267 21 -4 41 -8 45 -10 3 -2 22 -7 41 -10 19 -3 46 -8 60 -10 82 -15 155
-20 325 -20 105 -1 213 3 240 7 28 4 57 8 65 8 8 1 33 5 55 10 22 4 52 10 68
13 15 2 37 8 50 12 12 4 29 8 37 9 31 3 165 44 215 66 11 5 43 17 70 28 290
113 599 343 816 608 206 251 374 603 425 893 3 14 7 32 9 40 3 8 7 33 10 55 3
22 8 56 11 75 10 57 12 414 3 472 -5 29 -11 71 -14 93 -14 119 -98 427 -127
462 -15 18 0 21 120 22 62 1 116 2 120 2 4 1 9 1 12 0 3 -1 233 -2 512 -2
l507 0 0 -182 c0 -100 1 -186 2 -192 1 -5 1 -14 0 -18 -2 -10 -2 -927 -1 -942
1 -5 1 -48 0 -95 0 -47 -2 -211 -3 -365 l-2 -280 -29 -45 c-54 -82 -127 -122
-226 -121 -108 1 -940 1 -947 0 -4 -1 -12 -1 -18 0 -5 1 -42 2 -82 2 -101 1
-141 -29 -129 -95 6 -36 14 -46 44 -57 27 -11 1142 -14 1214 -4 44 6 117 33
139 52 8 7 21 13 27 13 20 0 115 119 141 177 l26 58 3 1505 c2 998 -1 1521 -8
1553 -22 105 -84 194 -174 252 -94 59 -132 66 -394 65 -79 0 -146 -1 -150 -1
-4 -1 -9 -1 -12 0 -3 1 -217 2 -476 2 l-471 1 -61 29 c-69 33 -105 71 -140
147 -24 53 -28 89 -33 277 -1 44 -9 103 -18 130 -22 66 -82 155 -139 206 -39
34 -144 102 -162 105 -3 0 -22 8 -43 17 -103 45 -142 46 -1092 46 -495 -1
-904 -2 -910 -4z m1870 -167 c118 -36 170 -63 237 -127 78 -72 95 -119 97
-254 1 -166 14 -233 58 -322 31 -60 110 -155 129 -155 8 0 14 -4 14 -8 0 -10
61 -40 120 -59 68 -22 154 -24 815 -26 675 -2 642 1 713 -68 68 -66 67 -62 67
-494 l0 -390 -655 -2 c-360 -1 -663 -4 -673 -7 -13 -3 -27 13 -59 67 -47 83
-156 243 -196 290 -181 211 -309 320 -567 485 -27 17 -264 133 -279 137 -6 1
-24 8 -41 14 -29 13 -143 49 -157 51 -4 1 -22 6 -40 11 -18 6 -44 12 -58 15
-14 3 -42 9 -62 15 -20 5 -58 11 -85 14 -26 3 -72 9 -102 14 -55 9 -436 7
-481 -2 -14 -3 -43 -8 -65 -12 -22 -3 -47 -7 -55 -10 -8 -2 -26 -6 -40 -9
-387 -71 -816 -312 -1090 -610 -25 -27 -62 -68 -82 -90 -21 -23 -38 -44 -38
-47 0 -3 -11 -19 -25 -35 -14 -16 -29 -33 -33 -39 -7 -9 -133 -213 -151 -245
-5 -8 -15 -14 -22 -12 -7 2 -311 3 -675 3 l-662 0 -1 379 c0 256 4 390 12 415
16 55 88 130 141 148 37 13 138 15 643 16 329 0 600 1 603 1 3 1 32 1 64 2 33
0 79 6 103 13 24 7 47 14 51 15 4 2 14 5 22 7 111 35 235 181 266 313 4 19 9
42 11 50 3 8 6 76 7 150 2 111 6 143 23 182 26 56 93 131 133 148 17 7 30 16
30 20 0 4 10 10 23 13 12 3 56 15 97 25 72 19 112 20 985 18 501 -1 919 -5
930 -8z m-710 -961 c11 -2 42 -8 68 -11 62 -9 109 -20 190 -41 9 -3 25 -7 35
-9 71 -17 322 -116 322 -127 0 -5 8 -9 18 -9 10 0 22 -4 27 -9 6 -5 33 -21 60
-36 71 -39 220 -144 290 -205 72 -62 207 -200 243 -249 15 -20 32 -42 39 -49
50 -52 206 -320 239 -409 10 -27 22 -54 27 -60 5 -7 6 -13 2 -13 -4 0 -3 -6 3
-12 13 -17 61 -173 77 -255 33 -165 39 -226 39 -408 1 -177 -5 -241 -29 -365
-3 -14 -8 -38 -11 -55 -39 -202 -201 -571 -298 -678 -9 -9 -16 -19 -16 -22 0
-3 -4 -11 -10 -18 -5 -7 -33 -41 -62 -77 -73 -90 -190 -208 -273 -274 -38 -31
-75 -60 -82 -66 -7 -5 -15 -10 -18 -10 -3 0 -13 -7 -22 -16 -25 -22 -140 -94
-151 -94 -5 0 -20 -8 -33 -18 -67 -50 -378 -168 -493 -186 -20 -3 -57 -11 -83
-17 -76 -17 -157 -22 -328 -23 -143 -1 -284 8 -318 19 -7 2 -28 6 -47 9 -19 3
-69 14 -110 26 -41 11 -83 22 -93 24 -10 3 -56 19 -102 36 -168 62 -349 162
-502 277 -97 73 -284 258 -346 343 -27 36 -54 72 -61 81 -30 37 -164 270 -171
299 -1 3 -11 27 -23 53 -12 27 -22 53 -22 58 0 5 -4 17 -9 27 -9 16 -20 45
-27 67 -35 116 -37 127 -59 230 -39 188 -41 505 -6 700 47 260 146 502 294
725 190 286 446 512 750 660 115 56 317 135 317 124 0 -2 8 0 19 5 10 6 31 13
47 16 37 6 72 13 104 20 57 12 78 15 140 21 36 4 66 8 68 9 5 5 365 -3 387 -8z"/>
<path d="M3115 4299 c-60 -11 -117 -22 -125 -25 -8 -3 -17 -5 -20 -6 -3 0 -47
-16 -99 -34 -142 -52 -305 -143 -416 -234 -59 -49 -202 -196 -242 -250 -68
-91 -164 -254 -163 -275 0 -3 -7 -20 -16 -37 -13 -25 -67 -173 -64 -173 1 0
-1 -7 -3 -15 -3 -8 -10 -40 -16 -70 -6 -30 -13 -68 -17 -85 -3 -16 -7 -103 -9
-192 -2 -125 2 -186 17 -270 61 -345 244 -652 525 -883 71 -58 301 -193 350
-205 10 -3 52 -17 93 -31 84 -29 84 -29 195 -51 117 -24 401 -23 520 1 403 80
742 314 961 662 29 48 59 102 66 120 7 19 16 34 20 34 4 0 7 3 6 8 -1 4 12 43
29 87 69 178 92 324 87 540 -3 136 -14 223 -43 341 -16 61 -61 185 -78 211 -9
13 -13 23 -10 23 9 0 -89 166 -141 240 -67 95 -243 266 -347 336 -254 171
-481 243 -790 249 -123 2 -185 -2 -270 -16z m487 -162 c526 -106 921 -509
1018 -1041 22 -123 20 -359 -4 -466 -4 -14 -8 -34 -10 -45 -10 -51 -52 -168
-91 -250 -36 -78 -133 -233 -168 -270 -115 -121 -149 -153 -203 -195 -36 -28
-75 -55 -87 -61 -12 -7 -24 -15 -27 -18 -21 -27 -290 -140 -372 -156 -12 -3
-34 -8 -48 -11 -64 -14 -126 -18 -265 -17 -137 0 -180 5 -322 38 -53 12 -174
60 -247 98 -247 127 -447 333 -570 587 -20 41 -36 75 -36 75 1 0 -4 14 -10 30
-7 17 -13 37 -15 45 -3 8 -12 42 -21 75 -32 118 -42 208 -39 354 1 80 8 170
15 199 7 30 13 61 15 70 2 9 4 18 4 20 1 1 1 4 1 7 0 3 14 44 31 92 117 333
354 594 676 745 47 22 91 41 97 43 6 1 18 5 26 8 12 5 76 23 110 32 3 1 39 7
80 14 41 7 82 14 90 15 45 8 306 -4 372 -17z"/>
<path d="M785 5602 c-2 -2 -25 -3 -52 -3 -122 1 -224 -77 -248 -187 -9 -44 -8
-161 3 -250 3 -20 67 -46 96 -38 42 10 56 53 58 167 1 92 3 103 24 124 l24 24
348 -1 c426 0 396 10 399 -135 3 -117 8 -141 35 -165 26 -22 50 -23 88 -3 37
19 43 41 42 147 -2 141 -17 190 -72 245 -44 44 -85 63 -150 69 -62 6 -590 11
-595 6z"/>
</g>
</svg>
